<?xml version="1.0" standalone="no"?><!DOCTYPE svg PUBLIC "-//W3C//DTD SVG 1.1//EN" "http://www.w3.org/Graphics/SVG/1.1/DTD/svg11.dtd"><svg class="icon" height="512" viewBox="0 0 1024 1024" version="1.1" xmlns="http://www.w3.org/2000/svg"><path d="M894.304 825.28h-122.208v122.272a52.384 52.384 0 1 1-104.832 0V825.28h-122.208a52.416 52.416 0 1 1 0-104.832h122.208v-122.272a52.384 52.384 0 1 1 104.832 0v122.272h122.208a52.416 52.416 0 1 1 0 104.832zM267.36 720.224h165.408v73.216H267.36v-73.216z m0-366.048h365.856v73.216H267.36v-73.216z m0 183.04h325.472v73.216H267.36v-73.216zM758.976 173.472a74.816 74.816 0 0 0-74.688-74.72h-273.632c-27.424 7.616-26.688 41.184-26.688 73.984v114.4a37.44 37.44 0 0 1-37.344 37.376H233.824c-37.344 0-74.688 0-74.688 37.376V849.92a74.816 74.816 0 0 0 74.688 74.72h340.704v74.72h-339.2a149.984 149.984 0 0 1-150.144-150.24V323.712c0-39.648 36.576-77.792 102.144-142.592l27.424-27.456 27.424-27.456C306.976 61.376 345.088 24.032 384.704 24.032h299.552c83.072 0 150.144 67.104 149.408 149.472v289.792h-74.688V173.504z" fill="" /></svg>